HIERARCHY
ROOT HipCenter
{
    OFFSET 0.0 0.0 -0.0
    CHANNELS 6 Xposition Yposition Zposition Zrotation Xrotation Yrotation
    JOINT Spine
    {
        OFFSET 0.0 9.792454719543457 0.0
        CHANNELS 3 Zrotation Xrotation Yrotation
        JOINT ShoulderCenter
        {
            OFFSET 0.0 28.43004608154297 0.0
            CHANNELS 3 Zrotation Xrotation Yrotation
            JOINT LeftShoulder
            {
                OFFSET 18.397415161132812 0.0 0.0
                CHANNELS 3 Zrotation Xrotation Yrotation
                JOINT LeftElbow
                {
                    OFFSET 29.94125747680664 0.0 0.0
                    CHANNELS 3 Zrotation Xrotation Yrotation
                    JOINT LeftWrist
                    {
                        OFFSET 28.812496185302734 0.0 0.0
                        CHANNELS 3 Zrotation Xrotation Yrotation
                        JOINT LeftHand
                        {
                            OFFSET 3.728853225708008 0.0 0.0
                            CHANNELS 3 Zrotation Xrotation Yrotation
                            End Site
                            {
                                OFFSET 1.4915413856506348 0.0 0.0
                            }
                        }
                    }
                }
            }
            JOINT RightShoulder
            {
                OFFSET -18.397415161132812 0.0 0.0
                CHANNELS 3 Zrotation Xrotation Yrotation
                JOINT RightElbow
                {
                    OFFSET -29.94125747680664 0.0 0.0
                    CHANNELS 3 Zrotation Xrotation Yrotation
                    JOINT RightWrist
                    {
                        OFFSET -28.812496185302734 0.0 0.0
                        CHANNELS 3 Zrotation Xrotation Yrotation
                        JOINT RightHand
                        {
                            OFFSET -3.728853225708008 0.0 0.0
                            CHANNELS 3 Zrotation Xrotation Yrotation
                            End Site
                            {
                                OFFSET -1.4915413856506348 0.0 0.0
                            }
                        }
                    }
                }
            }
            End Site
            {
                OFFSET 0.0 11.372017860412598 0.0
            }
        }
    }
    JOINT LeftHip
    {
        OFFSET 14.563438415527344 0.0 0.0
        CHANNELS 3 Zrotation Xrotation Yrotation
        JOINT LeftKnee
        {
            OFFSET 0.0 -39.31314468383789 0.0
            CHANNELS 3 Zrotation Xrotation Yrotation
            JOINT LeftAnkle
            {
                OFFSET 0.0 -42.28584671020508 0.0
                CHANNELS 3 Zrotation Xrotation Yrotation
                JOINT LeftFoot
                {
                    OFFSET 0.0 -10.249656677246094 0.0
                    CHANNELS 3 Zrotation Xrotation Yrotation
                    End Site
                    {
                        OFFSET 0.0 0.0 4.099863052368164
                    }
                }
            }
        }
    }
    JOINT RightHip
    {
        OFFSET -14.563438415527344 0.0 0.0
        CHANNELS 3 Zrotation Xrotation Yrotation
        JOINT RightKnee
        {
            OFFSET 0.0 -39.31314468383789 0.0
            CHANNELS 3 Zrotation Xrotation Yrotation
            JOINT RightAnkle
            {
                OFFSET 0.0 -42.28584671020508 0.0
                CHANNELS 3 Zrotation Xrotation Yrotation
                JOINT RightFoot
                {
                    OFFSET 0.0 -10.249656677246094 0.0
                    CHANNELS 3 Zrotation Xrotation Yrotation
                    End Site
                    {
                        OFFSET 0.0 0.0 4.099863052368164
                    }
                }
            }
        }
    }
}
MOTION
Frames: 5
Frame Time: 0.03333333333333333
4.099999904632568 -1.100000023841858 49.39999771118164 -5.3009268572222545 4.110003869341478 -1.6558699536867112 8.052811599146832 -8.31631451735987 1.6717697293645382 4.4976895760051626e-08 4.323848300098763e-09 -3.4859964884422605 110.44212438024627 -3.3178365968980263 -126.87453467802308 -9.361674164386786e-07 -4.528432689024109e-06 50.93338323904106 3.904953167506058e-06 -52.22670892342298 25.954625075325648 6.3611093629270335e-15 3.1805546814635168e-15 2.3854160110976376e-15 -100.74706199142376 -10.90653789466808 132.5060697173978 -7.265248557078197e-07 3.256109185126025e-06 -55.32351549342123 -179.99999602404444 -12.36686647442819 138.82939230677803 6.3611093629270335e-15 3.1805546814635168e-15 6.3611093629270335e-15 8.658236594213443 4.62869053814691 -29.87539645211957 -0.14549723342896131 -1.5713262035407243 1.8749300549191594 75.96591940259717 -53.542136733365936 132.08023466682883 -3.531125038440127e-31 6.361109362927032e-15 6.361109362927032e-15 3.1429736167221636 -2.2083109124841154 17.39514527133074 -0.13556490223948733 7.100010180284354 5.339056567093927 -74.1983393023491 -61.80879582791538 -113.49036329590177 -1.590277340731758e-15 6.3611093629270335e-15 -4.770832022195275e-15
4.199999809265137 -1.100000023841858 49.599998474121094 -4.714755309239291 4.113699355493319 -1.961259992378224 7.302343967654553 -8.498172365990897 1.6367350414198907 -1.2029079842545463e-07 -4.118883937298266e-07 -3.476970119749601 105.64024159025506 -2.4201779512099355 -129.57084930551844 9.699851497474382e-07 -5.210200871164608e-06 52.56917398691515 -3.423262298242939e-06 -58.43629793080312 24.96120045438661 0.0 -3.1805546814635168e-15 0.0 -105.21781583386353 -11.451045515005523 129.9396643954025 -1.848606639378099e-06 4.984683137826051e-06 -55.824973483257224 -179.99999726932546 -10.894062521294856 139.92197420085276 0.0 -3.1805546814635168e-15 0.0 8.0458636689965 4.796065986017291 -29.763411341815516 -0.24672173933894226 -1.6572007234720423 1.9645952323571825 76.4578327249753 -53.57718639310004 132.38853777144237 -3.1805546814635164e-15 7.951386703658792e-15 -6.3611093629270335e-15 2.4242439838071776 -2.2184850707560337 17.22455814420584 0.12153710305149479 7.130180836829242 5.415551628501812 -75.66125584450286 -61.6714237085459 -115.4125245859925 -4.770832022195275e-15 5.565970692561154e-15 2.3173008064763334e-31
4.199999809265137 -1.100000023841858 49.70000076293945 -4.127593105037069 4.116926302665254 -2.286653991774231 6.358525576845895 -8.524937214964504 1.5835958640145142 -1.5949121289750172e-07 -7.06338319867649e-08 -3.135921976005668 102.13794086682545 -2.030528197747598 -131.51267527537792 4.374343979220988e-06 -1.5648641699439938e-06 53.09611826576761 6.3466068306271186e-06 -56.47415130483488 26.740622110659082 0.0 0.0 3.975693351829396e-15 -107.9697848369786 -11.189983075463413 128.00946983876455 -3.3685593196641964e-06 -1.3006230430422116e-06 -56.23901365460173 -179.99999854992768 -10.273357661621192 137.4481738003553 8.827812596100317e-32 -3.1805546814635168e-15 3.1805546814635168e-15 7.429395881354302 4.960384682282738 -30.132860322321946 -0.14558971697188874 -1.7866481034559867 2.1046724053117574 76.39638569029059 -52.99733982861456 132.35021520002306 0.0 0.0 0.0 1.9892394678937397 -2.226787752668342 17.486586485656694 -0.11281476339019289 7.329784923638969 5.585438392415317 -74.60540257699212 -62.06715483471073 -114.26828892666248 -4.770832022195274e-15 5.5659706925611536e-15 2.3173008064763334e-31
4.199999809265137 -1.2000000476837158 49.900001525878906 -3.503534028592179 3.4969909715171914 -2.268761846433272 5.489352891759045 -7.9494854156132275 1.4398836953536045 6.284491997967746e-08 -5.707680229795808e-07 -2.962197421429785 100.35431847715597 -2.0248503843044356 -133.14653506650453 -5.999174857350013e-07 2.05077208514417e-07 53.490540247613026 3.0443613372708466e-07 -56.81773857329303 27.20669689551149 3.310429723537619e-32 3.1805546814635168e-15 -1.1927080055488188e-15 -109.47032878791602 -10.507419009996802 126.91832111025542 -3.0465759615173666e-06 -3.240232806608113e-06 -56.1720322384536 179.99999916862873 -9.382507092815445 137.89486656260505 0.0 0.0 -3.1805546814635168e-15 6.801868145677121 5.392269030729261 -29.514810962505514 -0.20581783671896425 -1.4721559918004965 1.7331989918393822 77.3619984335491 -53.47585206373631 133.1666142730227 0.0 0.0 -3.1805546814635168e-15 1.4731714996238525 -1.4891562233042537 16.860393879157968 -0.35350696290836237 7.228323375926625 5.430080954244589 -74.23916503849202 -62.753630045844126 -113.31665143125683 -3.1805546814635164e-15 8.827812596100317e-32 -3.1805546814635164e-15
4.099999904632568 -1.2000000476837158 50.0 -3.503531451583357 3.496991080090809 -2.2687400871522545 5.293753387905354 -8.161324070144154 1.4493325961969372 1.0036462997115672e-07 1.4836281173733481e-07 -3.137428049969738 99.6019571729191 -1.8742611553919009 -134.2977239588987 8.647694721734318e-06 -8.43482327519498e-06 53.592622361531 8.900979318259632e-07 -55.25637265016563 24.70335611835626 0.0 0.0 -7.951386703658791e-16 -110.36159125939199 -10.467918518933462 126.61594179186508 -1.02513466228791e-06 -4.702961147232978e-07 -56.154302533828144 -179.99999668150153 -11.334033474729415 138.18843780074246 -8.827812596100317e-32 -3.1805546814635168e-15 -3.1805546814635168e-15 6.801866639862668 5.392266506935968 -29.514833013016354 -0.09098060444512925 -1.4011626705458948 1.656393070869449 76.82816519088409 -52.88558084319371 132.95336980618063 3.1805546814635168e-15 6.3611093629270335e-15 3.1805546814635168e-15 1.4731682465050442 -1.4891516241318568 16.86041290312356 -0.186866363267419 7.325170099968983 5.468998499682165 -74.59508663567728 -62.71745455318159 -113.5215864301358 -1.5902773407317588e-15 -6.361109362927035e-15 -1.5902773407317588e-15
